<?xml version="1.0" standalone="no"?>
<!DOCTYPE svg PUBLIC "-//W3C//DTD SVG 20010904//EN"
 "http://www.w3.org/TR/2001/REC-SVG-20010904/DTD/svg10.dtd">
<svg version="1.0" xmlns="http://www.w3.org/2000/svg"
 width="1024.000000pt" height="1536.000000pt" viewBox="0 0 1024.000000 1536.000000"
 preserveAspectRatio="xMidYMid meet">

<g transform="translate(0.000000,1536.000000) scale(0.100000,-0.100000)"
fill="#000000" stroke="none">
<path d="M3165 14976 c-206 -39 -426 -186 -540 -360 -21 -33 -56 -78 -78 -100
-81 -83 -127 -227 -127 -402 0 -61 -5 -148 -11 -194 -8 -61 -8 -126 0 -254 7
-94 16 -274 22 -401 5 -126 13 -282 18 -345 6 -63 10 -232 11 -375 0 -302 8
-383 54 -617 19 -95 37 -206 41 -247 3 -41 13 -92 22 -113 21 -53 87 -108 196
-164 80 -40 106 -61 202 -159 317 -325 560 -459 988 -545 63 -13 122 -54 138
-99 6 -13 26 -79 45 -145 45 -152 52 -235 29 -347 -47 -236 -58 -326 -64 -569
-6 -264 -1 -421 19 -540 12 -68 11 -82 -8 -150 -46 -167 -56 -345 -23 -428
l20 -49 -54 -44 c-54 -44 -69 -66 -74 -110 0 -6 -10 -9 -21 -6 -20 5 -94 -36
-120 -68 -8 -10 -17 -41 -20 -68 l-5 -51 -85 -43 c-47 -24 -114 -67 -150 -96
-35 -28 -110 -74 -165 -102 -134 -67 -329 -182 -483 -284 -70 -47 -169 -107
-221 -135 -118 -63 -145 -96 -166 -196 -9 -41 -27 -91 -40 -110 -30 -43 -136
-170 -220 -265 -136 -152 -237 -322 -266 -445 -47 -199 39 -444 234 -668 38
-44 83 -118 146 -240 53 -104 117 -211 153 -259 35 -45 90 -117 123 -160 73
-95 167 -204 302 -350 56 -61 114 -135 128 -164 15 -29 35 -64 45 -79 53 -79
120 -189 130 -215 16 -40 50 -181 50 -205 0 -10 -18 -40 -41 -66 -37 -43 -40
-50 -34 -88 9 -52 27 -81 62 -98 14 -7 28 -18 30 -24 2 -6 -29 -32 -69 -57
-63 -39 -128 -96 -128 -112 0 -9 65 9 118 32 29 13 68 23 87 23 33 0 35 -1 29
-27 -4 -16 -10 -35 -14 -43 -4 -8 -11 -35 -15 -60 -16 -97 -89 -291 -189 -503
-112 -238 -121 -262 -137 -386 -21 -174 47 -251 223 -251 143 0 312 92 465
253 121 128 181 234 256 455 25 73 54 147 65 166 11 18 71 71 134 118 139 104
206 176 253 271 65 134 63 216 -9 322 -38 54 -74 86 -153 137 -24 15 -57 51
-78 85 -49 77 -77 106 -148 150 -99 63 -315 340 -373 479 -9 21 -38 72 -65
114 -78 122 -97 175 -130 352 -31 170 -45 223 -86 323 -36 86 -114 213 -165
265 -24 25 -50 58 -58 73 -8 16 -29 42 -48 58 -27 24 -31 33 -22 44 17 20 119
67 155 72 17 2 32 8 33 13 5 13 49 13 57 0 3 -5 14 -10 24 -10 25 0 74 -26
151 -78 62 -42 67 -44 120 -39 73 6 150 46 213 109 49 49 221 169 345 241 69
40 344 153 398 163 43 8 58 -4 95 -78 48 -95 88 -204 135 -368 25 -85 63 -206
84 -268 26 -73 51 -176 70 -290 38 -218 51 -245 137 -287 79 -39 101 -60 108
-104 26 -156 72 -359 106 -461 45 -138 71 -193 128 -274 31 -45 42 -73 56
-147 16 -80 25 -102 75 -178 31 -47 85 -119 119 -160 81 -97 88 -111 105 -228
24 -163 55 -234 171 -403 96 -139 118 -184 185 -385 32 -93 74 -214 94 -267
48 -130 80 -293 72 -366 -4 -32 -9 -130 -12 -219 -5 -131 -3 -173 10 -217 29
-98 19 -208 -29 -318 -4 -11 -3 -18 3 -18 7 0 8 -14 5 -37 -5 -33 -4 -36 8
-26 8 7 26 34 40 60 l24 48 3 -55 c5 -78 -15 -326 -33 -410 -45 -212 -40 -513
9 -624 76 -171 295 -193 486 -50 127 96 203 228 285 494 41 132 43 227 10 395
-36 180 -32 261 20 425 73 232 54 423 -57 563 -20 25 -57 51 -114 78 -47 23
-91 51 -99 63 -37 57 -74 205 -100 407 -8 63 -22 137 -31 165 -14 40 -17 99
-19 334 -3 311 -14 411 -61 555 -37 112 -113 266 -178 360 -162 235 -165 240
-194 353 -26 102 -27 118 -26 332 1 124 4 247 6 275 l6 50 53 -3 c103 -4 110
12 67 141 l-31 92 -8 320 c-4 176 -12 343 -18 370 -6 28 -15 70 -20 95 -6 28
-5 76 2 130 10 85 10 85 -21 146 -17 34 -36 90 -41 124 -9 54 -7 76 14 163 37
150 34 207 -15 322 -22 52 -40 104 -40 117 0 13 9 61 20 108 38 167 25 243
-74 435 -91 173 -93 228 -16 310 76 81 81 105 60 335 -14 165 -15 165 76 305
48 76 96 208 114 321 21 125 51 216 97 292 71 117 129 249 152 347 11 50 21
98 21 108 0 32 15 17 55 -54 83 -145 246 -363 360 -479 135 -138 147 -158 190
-330 35 -137 149 -316 380 -596 187 -225 239 -294 289 -379 57 -97 122 -253
156 -379 21 -76 21 -80 5 -145 -30 -121 -35 -214 -18 -365 20 -180 10 -273
-36 -343 l-31 -47 22 -23 c26 -28 47 -29 97 -4 42 22 59 44 85 110 20 51 56
220 56 262 0 16 5 29 11 29 5 0 7 4 4 10 -14 22 13 8 41 -21 16 -17 48 -44 70
-60 83 -57 148 -222 195 -489 15 -89 49 -191 63 -188 6 2 29 -16 50 -40 50
-55 77 -54 90 3 6 22 10 118 10 213 0 94 3 172 7 172 8 0 17 -24 54 -135 15
-44 43 -103 63 -131 46 -66 123 -113 93 -56 -6 11 -10 44 -10 73 0 66 -13 142
-41 234 -12 39 -29 97 -39 130 -10 33 -21 71 -26 85 -7 22 -6 23 9 11 9 -7 16
-18 16 -23 0 -5 11 -24 24 -41 21 -28 61 -99 127 -228 17 -34 36 -49 60 -49
13 0 11 35 -5 72 -8 18 -26 69 -40 113 -16 47 -49 113 -80 160 -29 44 -80 127
-113 185 -62 109 -132 207 -178 250 -77 71 -144 172 -232 350 -103 209 -121
260 -194 555 -50 203 -135 453 -254 745 -81 201 -115 253 -268 420 -122 132
-186 229 -295 445 -56 110 -118 221 -139 247 -131 161 -131 162 -147 241 -9
42 -16 96 -16 120 0 112 -76 302 -170 429 -63 83 -182 196 -229 215 -20 9 -62
22 -95 30 -32 7 -72 25 -90 40 -47 39 -110 62 -189 69 -56 4 -91 15 -155 46
-51 25 -108 44 -150 50 -37 5 -77 12 -89 14 -35 6 -57 78 -49 161 12 121 31
163 121 272 135 163 186 265 199 395 6 69 -13 187 -44 269 -69 184 -267 371
-455 430 -60 19 -92 22 -230 21 -183 0 -229 -12 -332 -82 -65 -45 -235 -216
-278 -280 -25 -38 -28 -52 -31 -143 l-3 -100 -40 -29 c-22 -17 -50 -48 -61
-70 l-20 -39 26 -17 c22 -15 25 -22 19 -51 -3 -19 -15 -54 -26 -79 -24 -57
-27 -180 -4 -210 19 -25 19 -51 0 -105 -14 -38 -14 -47 0 -88 32 -95 74 -122
181 -119 44 1 84 -1 90 -5 6 -3 14 -37 18 -74 4 -37 10 -87 13 -110 7 -51 -9
-57 -32 -13 -19 36 -38 38 -80 6 l-32 -25 -49 24 c-27 14 -58 25 -69 25 -11 0
-40 12 -65 27 -187 109 -264 146 -366 173 -109 30 -276 37 -374 16 -41 -9 -84
-16 -95 -16 -11 0 -46 23 -79 50 -161 139 -310 212 -550 271 -65 16 -127 36
-137 44 -9 9 -20 31 -23 49 -9 47 -90 313 -114 371 -11 28 -45 104 -75 170
-71 154 -104 268 -123 430 -34 292 -22 375 70 487 53 64 57 66 86 58 62 -18
276 -32 377 -26 216 14 375 79 502 204 236 234 306 601 170 900 -104 230 -293
402 -529 482 -82 28 -280 36 -385 16z m5672 -8308 c-3 -8 -6 -5 -6 6 -1 11 2
17 5 13 3 -3 4 -12 1 -19z"/>
</g>
</svg>
